#N canvas 711 353 949 561 10;
#X declare -lib mrpeach;
#X obj 59 324 packOSC;
#X msg 460 265 send /mouse/position \$1 \$2;
#X floatatom 460 205 5 0 0 0 - - -;
#X floatatom 498 180 5 0 0 0 - - -;
#X msg 131 363 connect localhost 12345;
#X msg 808 261 send /test \$1;
#X obj 808 234 tosymbol;
#X msg 808 208 Hola Mundo;
#X msg 636 265 send /mouse/button \$1;
#X obj 636 236 tosymbol;
#X msg 636 210 up;
#X msg 676 209 down;
#X obj 131 339 loadbang;
#X obj 59 363 udpsend;
#X obj 460 230 pack f f;
#X obj 498 203 t b f;
#X obj 60 431 import mrpeach;
#X msg 213 86 set 0.25 0.5 0.75 1 0.67 0.3;
#X obj 177 160 *~ 0.5;
#X obj 177 187 dac~;
#X obj 59 60 bng 50 250 50 0 empty empty empty 17 7 0 10 -262144 -1
-1;
#X obj 177 135 click~;
#X msg 59 135 255 255 255;
#X msg 59 231 0 255 255;
#X msg 59 274 send /color \$1 \$2 \$3;
#X obj 59 205 del 10;
#X obj 59 173 t b l;
#X obj 266 227 pack 0 0 0;
#X floatatom 282 141 5 0 0 0 - - -;
#X floatatom 322 141 5 0 0 0 - - -;
#X floatatom 362 141 5 0 0 0 - - -;
#X obj 347 200 bng 50 250 50 0 empty empty empty 17 7 0 10 -262144
-1 -1;
#X obj 241 190 bng 15 250 50 0 empty empty empty 17 7 0 10 -262144
-1 -1;
#X obj 344 330 loadbang;
#X obj 344 355 metro 1000;
#X obj 344 379 bng 15 250 50 0 empty empty empty 0 -6 0 8 -262144 -1
-1;
#X connect 0 0 13 0;
#X connect 1 0 0 0;
#X connect 2 0 14 0;
#X connect 3 0 15 0;
#X connect 4 0 13 0;
#X connect 5 0 0 0;
#X connect 6 0 5 0;
#X connect 7 0 6 0;
#X connect 8 0 0 0;
#X connect 9 0 8 0;
#X connect 10 0 9 0;
#X connect 11 0 9 0;
#X connect 12 0 4 0;
#X connect 14 0 1 0;
#X connect 15 0 14 0;
#X connect 15 1 14 1;
#X connect 17 0 21 0;
#X connect 18 0 19 0;
#X connect 18 0 19 1;
#X connect 20 0 21 0;
#X connect 20 0 22 0;
#X connect 21 0 18 0;
#X connect 22 0 26 0;
#X connect 23 0 24 0;
#X connect 24 0 0 0;
#X connect 25 0 23 0;
#X connect 26 0 25 0;
#X connect 26 1 24 0;
#X connect 27 0 24 0;
#X connect 27 0 31 0;
#X connect 28 0 27 0;
#X connect 29 0 27 1;
#X connect 29 0 32 0;
#X connect 30 0 27 2;
#X connect 30 0 32 0;
#X connect 32 0 27 0;
#X connect 33 0 34 0;
#X connect 34 0 35 0;
