#N canvas 1300 22 539 357 10;
#X declare -lib mrpeach;
#X obj 59 205 packOSC;
#X msg 59 133 send /mouse/position \$1 \$2;
#X floatatom 59 73 5 0 0 0 - - -;
#X floatatom 97 48 5 0 0 0 - - -;
#X msg 131 244 connect localhost 12345;
#X msg 407 129 send /test \$1;
#X obj 407 102 tosymbol;
#X msg 407 76 Hola Mundo;
#X msg 235 133 send /mouse/button \$1;
#X obj 235 104 tosymbol;
#X msg 235 78 up;
#X msg 275 77 down;
#X obj 131 220 loadbang;
#X obj 59 244 udpsend;
#X obj 59 98 pack f f;
#X obj 97 71 t b f;
#X obj 315 200 import mrpeach;
#X connect 0 0 13 0;
#X connect 1 0 0 0;
#X connect 2 0 14 0;
#X connect 3 0 15 0;
#X connect 4 0 13 0;
#X connect 5 0 0 0;
#X connect 6 0 5 0;
#X connect 7 0 6 0;
#X connect 8 0 0 0;
#X connect 9 0 8 0;
#X connect 10 0 9 0;
#X connect 11 0 9 0;
#X connect 12 0 4 0;
#X connect 14 0 1 0;
#X connect 15 0 14 0;
#X connect 15 1 14 1;
